# xmcd
#
# Track frame offsets:
#	150
#	12774
#	25337
#	43895
#	57706
#	81301
#	92138
#	114266
#	130734
#	147186
#	164786
#	176745
#	193111
#	207000
#	220633
#	231086
#	249015
#	263324
#	276800
#	291790
#
# Disc length: 4092 seconds
#
# Revision: 1
# Processed by: cddbd v1.5.2PL0 Copyright (c) Steve Scherf et al.
# Submitted via: audiograbber 1.83.01
#
DISCID=1d0ffa14
DTITLE=Various Artist - CMT's 100 Greatest Country Duets - CD 4
DYEAR=2006
DGENRE=Country
TTITLE0=Loretta Lynn and Ernest Tubb - Sweet Thang
TTITLE1=Carl and Pearl Butler - Don't Let Me Cross Over
TTITLE2=Shenandoah and Alsion Krauss - Somewhere In The Vicinity Of The Heart
TTITLE3=Willie Nelson and Leon Russell - Heartbreak Hotel
TTITLE4=Conway Twitty and Sam Moore - Rainy Night In Georgia
TTITLE5=George Jones and Tammy Wynette - Near You
TTITLE6=Steve Wariner and Anita Cochran - What If I Said
TTITLE7=Merle Haggard and Janie Fricke - A Place To Fall Apart
TTITLE8=George Jones and Alan Jackson - A Good Year for the Roses
TTITLE9=Anne Murray and Dave Loggins - Nobody Loves Me Like You Do
TTITLE10=Chris LeDoux and Garth Brooks - What'cha Gonna Do With a Cowboy
TTITLE11=George Jones and Elvis Costello - Stranger In The House
TTITLE12=Jim Ed Brown and Helen Cornelius - I Don't Want To Have To Marry You
TTITLE13=Travis Tritt and Marty Stuart - Honky Tonkin's What I Do Best
TTITLE14=Garth Brooks and Steve Wariner - Longneck Bottle
TTITLE15=Marie Osmond and Dan Seals - Meet Me In Montana
TTITLE16=LeAnn Rimes and Eddy Arnold - Cattle Call
TTITLE17=Kris Kristofferson and Rita Coolidge - From The Bottle To The Bottom
TTITLE18=Rodney Crowell and Rosanne Cash - It's Such A Small World
TTITLE19=Jimmy Buffet and Martina McBride - Trip Around The Sun
EXTD=
EXTT0=
EXTT1=
EXTT2=
EXTT3=
EXTT4=
EXTT5=
EXTT6=
EXTT7=
EXTT8=
EXTT9=
EXTT10=
EXTT11=
EXTT12=
EXTT13=
EXTT14=
EXTT15=
EXTT16=
EXTT17=
EXTT18=
EXTT19=
PLAYORDER=
